HIERARCHY
ROOT hip
{
  OFFSET 0 0 0
  CHANNELS 6 Xposition Yposition Zposition Zrotation Yrotation Xrotation
  JOINT abdomen
  {
    OFFSET 0 20.6881 -0.73152
    CHANNELS 3 Zrotation Xrotation Yrotation
    JOINT chest
    {
      OFFSET 0 11.7043 -0.48768
      CHANNELS 3 Zrotation Xrotation Yrotation
      JOINT neck
      {
        OFFSET 0 22.1894 -2.19456
        CHANNELS 3 Zrotation Xrotation Yrotation
        JOINT head
        {
          OFFSET -0.24384 7.07133 1.2192
          CHANNELS 3 Zrotation Xrotation Yrotation
          JOINT leftEye
          {
            OFFSET 4.14528 8.04674 8.04672
            CHANNELS 3 Zrotation Xrotation Yrotation
            End Site
            {
              OFFSET 1 0 0
            }
          }
          JOINT rightEye
          {
            OFFSET -3.6576 8.04674 8.04672
            CHANNELS 3 Zrotation Xrotation Yrotation
            End Site
            {
              OFFSET 1 0 0
            }
          }
        }
      }
      JOINT rCollar
      {
        OFFSET -2.68224 19.2634 -4.8768
        CHANNELS 3 Zrotation Xrotation Yrotation
        JOINT rShldr
        {
          OFFSET -8.77824 -1.95073 1.46304
          CHANNELS 3 Zrotation Xrotation Yrotation
          JOINT rForeArm
          {
            OFFSET -28.1742 -1.7115 0.48768
            CHANNELS 3 Zrotation Xrotation Yrotation
            JOINT rHand
            {
              OFFSET -22.5879 0.773209 7.07136
              CHANNELS 3 Zrotation Xrotation Yrotation
              JOINT rThumb1
              {
                OFFSET -1.2192 -0.487915 3.41376
                CHANNELS 3 Zrotation Xrotation Yrotation
                JOINT rThumb2
                {
                  OFFSET -3.37035 -0.52449 3.41376
                  CHANNELS 3 Zrotation Xrotation Yrotation
                  End Site
                  {
                    OFFSET -1.78271 -1.18214 1.43049
                  }
                }
              }
              JOINT rIndex1
              {
                OFFSET -7.75947 0.938293 5.60832
                CHANNELS 3 Zrotation Xrotation Yrotation
                JOINT rIndex2
                {
                  OFFSET -2.54057 -0.884171 1.56538
                  CHANNELS 3 Zrotation Xrotation Yrotation
                  End Site
                  {
                    OFFSET -1.62519 -0.234802 1.16502
                  }
                }
              }
              JOINT rMid1
              {
                OFFSET -8.24714 1.18213 3.41376
                CHANNELS 3 Zrotation Xrotation Yrotation
                JOINT rMid2
                {
                  OFFSET -3.10165 -0.590103 1.0647
                  CHANNELS 3 Zrotation Xrotation Yrotation
                  End Site
                  {
                    OFFSET -2.48547 -0.328903 0.83742
                  }
                }
              }
              JOINT rRing1
              {
                OFFSET -8.82822 0.546677 1.51678
                CHANNELS 3 Zrotation Xrotation Yrotation
                JOINT rRing2
                {
                  OFFSET -2.60934 -0.819778 -0.0198488
                  CHANNELS 3 Zrotation Xrotation Yrotation
                  End Site
                  {
                    OFFSET -2.33842 -0.294052 0.168128
                  }
                }
              }
              JOINT rPinky1
              {
                OFFSET -8.27202 -0.0477905 -0.4584
                CHANNELS 3 Zrotation Xrotation Yrotation
                JOINT rPinky2
                {
                  OFFSET -1.82734 -0.647385 -0.700984
                  CHANNELS 3 Zrotation Xrotation Yrotation
                  End Site
                  {
                    OFFSET -1.69225 -0.51767 -0.607171
                  }
                }
              }
            }
          }
        }
      }
      JOINT lCollar
      {
        OFFSET 2.68224 19.2634 -4.8768
        CHANNELS 3 Zrotation Xrotation Yrotation
        JOINT lShldr
        {
          OFFSET 8.77824 -1.95073 1.46304
          CHANNELS 3 Zrotation Xrotation Yrotation
          JOINT lForeArm
          {
            OFFSET 28.1742 -1.7115 0.48768
            CHANNELS 3 Zrotation Xrotation Yrotation
            JOINT lHand
            {
              OFFSET 22.5879 0.773209 7.07136
              CHANNELS 3 Zrotation Xrotation Yrotation
              JOINT lThumb1
              {
                OFFSET 1.2192 -0.487915 3.41376
                CHANNELS 3 Zrotation Xrotation Yrotation
                JOINT lThumb2
                {
                  OFFSET 3.37035 -0.52449 3.41376
                  CHANNELS 3 Zrotation Xrotation Yrotation
                  End Site
                  {
                    OFFSET 1.78271 -1.18214 1.43049
                  }
                }
              }
              JOINT lIndex1
              {
                OFFSET 7.75947 0.938293 5.60832
                CHANNELS 3 Zrotation Xrotation Yrotation
                JOINT lIndex2
                {
                  OFFSET 2.54057 -0.884171 1.56538
                  CHANNELS 3 Zrotation Xrotation Yrotation
                  End Site
                  {
                    OFFSET 1.62519 -0.234802 1.16502
                  }
                }
              }
              JOINT lMid1
              {
                OFFSET 8.24714 1.18213 3.41376
                CHANNELS 3 Zrotation Xrotation Yrotation
                JOINT lMid2
                {
                  OFFSET 3.10165 -0.590103 1.0647
                  CHANNELS 3 Zrotation Xrotation Yrotation
                  End Site
                  {
                    OFFSET 2.48547 -0.328903 0.83742
                  }
                }
              }
              JOINT lRing1
              {
                OFFSET 8.82822 0.546677 1.51678
                CHANNELS 3 Zrotation Xrotation Yrotation
                JOINT lRing2
                {
                  OFFSET 2.60934 -0.819778 -0.0198488
                  CHANNELS 3 Zrotation Xrotation Yrotation
                  End Site
                  {
                    OFFSET 2.33842 -0.294052 0.168128
                  }
                }
              }
              JOINT lPinky1
              {
                OFFSET 8.27202 -0.0477905 -0.4584
                CHANNELS 3 Zrotation Xrotation Yrotation
                JOINT lPinky2
                {
                  OFFSET 1.82734 -0.647385 -0.700984
                  CHANNELS 3 Zrotation Xrotation Yrotation
                  End Site
                  {
                    OFFSET 1.69225 -0.51767 -0.607171
                  }
                }
              }
            }
          }
        }
      }
    }
  }
  JOINT rButtock
  {
    OFFSET -8.77824 4.35084 1.2192
    CHANNELS 3 Zrotation Xrotation Yrotation
    JOINT rThigh
    {
      OFFSET 0 -1.70687 -2.19456
      CHANNELS 3 Zrotation Xrotation Yrotation
      JOINT rShin
      {
        OFFSET 0 -36.8199 0.73152
        CHANNELS 3 Zrotation Xrotation Yrotation
        JOINT rFoot
        {
          OFFSET 0.73152 -45.1104 -5.12064
          CHANNELS 3 Zrotation Xrotation Yrotation
          End Site
          {
            OFFSET -1.1221 -3.69964 12.103
          }
        }
      }
    }
  }
  JOINT lButtock
  {
    OFFSET 8.77824 4.35084 1.2192
    CHANNELS 3 Zrotation Xrotation Yrotation
    JOINT lThigh
    {
      OFFSET 0 -1.70687 -2.19456
      CHANNELS 3 Zrotation Xrotation Yrotation
      JOINT lShin
      {
        OFFSET 0 -36.8199 0.73152
        CHANNELS 3 Zrotation Xrotation Yrotation
        JOINT lFoot
        {
          OFFSET -0.73152 -45.1104 -5.12064
          CHANNELS 3 Zrotation Xrotation Yrotation
          End Site
          {
            OFFSET 1.1221 -3.69964 12.103
          }
        }
      }
    }
  }
}
MOTION
Frames:	4
Frame Time:	0.00833333
5.92525 63.8469 -64.531 9.8129 0.6934 18.9667 -5.19907 28.87 -0.284435 0.487108 -10.2476 -0.423772 -7.84232 0.448107 -3.4072 12.9087 -40.0211 -0.256895 -0.0 0.0 0.0 -0.0 0.0 0.0 -1.4391e-13 -3.181e-14 -2.13445e-13 68.6636 20.0706 14.4302 -12.0974 -5.51716 21.7985 -0.00138514 1.06266 0.149364 3.97709e-09 -2.63025e-09 3.39995e-09 6.88582e-09 -4.55226e-09 5.86854e-09 3.97709e-09 -2.63024e-09 3.39994e-09 7.73091 5.47488 0.417314 3.97708e-09 -2.63024e-09 3.39995e-09 2.90554 0.965183 0.102902 3.97709e-09 -2.63024e-09 3.39995e-09 10.2786 0.731801 0.0259123 3.97709e-09 -2.63024e-09 3.39997e-09 2.22167 -0.733487 -0.20892 -1.4394e-13 -3.18013e-14 -2.13544e-13 -72.1622 25.005 -16.3326 12.2998 -5.6611 -22.1917 0.0830217 -8.19203 1.1593 3.20713e-09 -1.20464e-09 -2.44306e-09 5.55035e-09 -2.08244e-09 -4.20765e-09 3.20713e-09 -1.20464e-09 -2.44305e-09 -7.73091 5.47488 -0.417314 3.20713e-09 -1.20464e-09 -2.44306e-09 -2.90554 0.965183 -0.102902 3.20713e-09 -1.20464e-09 -2.44306e-09 -10.2786 0.731801 -0.0259123 3.20713e-09 -1.20463e-09 -2.44306e-09 -2.22167 -0.733487 0.20892 -2.03217e-16 0.0 -3.88251e-19 -16.0913 -62.4773 -1.39097 -47.6437 88.6761 48.6905 -6.366 -26.8298 -11.2082 2.03217e-16 0.0 3.88251e-19 -15.3819 -57.205 -8.32945 4.6704 79.5571 -5.35087 1.18747 -25.5954 1.91255
6.00879 63.5414 -64.054 10.0431 0.7951 18.6793 -5.00453 28.5115 -0.251729 0.457031 -10.1603 -0.399177 -7.82197 0.15513 -3.41189 12.7454 -39.706 -0.324519 -0.0 0.0 0.0 -0.0 0.0 0.0 -1.22706e-13 -2.01061e-14 -1.88119e-13 68.1833 20.1233 15.9199 -12.7371 -5.98184 23.0441 -0.00479461 0.282753 0.0400131 3.11895e-09 -1.81733e-09 2.81673e-09 5.3999e-09 -3.14521e-09 4.86296e-09 3.11896e-09 -1.81733e-09 2.81672e-09 7.73091 5.47488 0.417314 3.11895e-09 -1.81733e-09 2.81673e-09 2.90554 0.965183 0.102902 3.11896e-09 -1.81733e-09 2.81674e-09 10.2786 0.731801 0.0259123 3.11895e-09 -1.81733e-09 2.81675e-09 2.22167 -0.733487 -0.20892 -1.22763e-13 -2.00982e-14 -1.88291e-13 -71.2184 25.9472 -18.3666 13.1383 -6.29564 -23.8147 0.120333 -9.90404 1.4055 2.84816e-09 -6.09508e-10 -2.24516e-09 4.93021e-09 -1.05265e-09 -3.86735e-09 2.84815e-09 -6.09503e-10 -2.24515e-09 -7.73091 5.47488 -0.417314 2.84816e-09 -6.09502e-10 -2.24516e-09 -2.90554 0.965183 -0.102902 2.84815e-09 -6.09501e-10 -2.24516e-09 -10.2786 0.731801 -0.0259123 2.84816e-09 -6.09499e-10 -2.24516e-09 -2.22167 -0.733487 0.20892 -2.03217e-16 0.0 -3.88251e-19 -16.062 -62.2881 -1.64502 -89.7921 89.0057 90.8405 -6.28412 -26.6378 -11.1047 2.03217e-16 0.0 3.88251e-19 -15.1234 -56.8775 -8.31425 5.07418 80.2536 -5.75637 1.10546 -25.8695 1.7528
5.97053 63.2335 -63.538 9.9086 0.978 18.2749 -4.58172 28.1088 -0.218061 0.394673 -10.0762 -0.360673 -7.79672 -0.200758 -3.42866 12.5267 -39.2784 -0.442526 -0.0 0.0 0.0 -0.0 0.0 0.0 -9.26379e-14 2.18367e-15 -1.23458e-13 67.8115 19.8958 17.3435 -13.4209 -6.49024 24.4188 -0.00450577 -0.0639811 -0.0087491 1.54578e-09 -2.60663e-10 1.53501e-09 2.67493e-09 -4.513e-10 2.65122e-09 1.54578e-09 -2.60661e-10 1.535e-09 7.73091 5.47488 0.417314 1.54578e-09 -2.60663e-10 1.53501e-09 2.90554 0.965183 0.102902 1.54578e-09 -2.60663e-10 1.53502e-09 10.2786 0.731801 0.0259123 1.54578e-09 -2.6066e-10 1.53503e-09 2.22167 -0.733487 -0.20892 -9.27256e-14 2.18951e-15 -1.23753e-13 -70.3302 26.6831 -20.3381 14.0972 -7.03625 -25.7728 0.166417 -11.6573 1.66066 2.12073e-09 3.38074e-10 -1.44513e-09 3.67256e-09 5.86583e-10 -2.48893e-09 2.12072e-09 3.38075e-10 -1.44513e-09 -7.73091 5.47488 -0.417314 2.12072e-09 3.38076e-10 -1.44514e-09 -2.90554 0.965183 -0.102902 2.12071e-09 3.38076e-10 -1.44514e-09 -10.2786 0.731801 -0.0259123 2.12073e-09 3.3808e-10 -1.44514e-09 -2.22167 -0.733487 0.20892 -2.03217e-16 0.0 -3.88251e-19 -15.5732 -61.9991 -1.64436 -127.666 88.7263 128.721 -6.31584 -26.4169 -11.2143 2.03217e-16 0.0 3.88251e-19 -14.5718 -56.5215 -8.23661 5.52683 80.9333 -6.21515 1.11572 -26.2581 1.76169
5.63686 62.9043 -62.955 8.7728 1.1392 17.6967 -4.12238 27.7165 -0.141871 0.330592 -9.99217 -0.308008 -7.76522 -0.586515 -3.45471 12.2603 -38.8015 -0.598741 -0.0 0.0 0.0 -0.0 0.0 0.0 -6.96556e-14 3.13316e-14 -5.12111e-14 67.4077 19.5894 18.7544 -14.1628 -7.07511 25.9162 -0.00186248 -0.239988 -0.0336403 -7.52779e-11 1.33654e-09 1.97147e-10 -1.33319e-10 2.31282e-09 3.4252e-10 -7.52731e-11 1.33654e-09 1.97137e-10 7.73091 5.47488 0.417314 -7.52801e-11 1.33654e-09 1.97147e-10 2.90554 0.965183 0.102902 -7.5272e-11 1.33654e-09 1.97151e-10 10.2786 0.731801 0.0259123 -7.52822e-11 1.33654e-09 1.97158e-10 2.22167 -0.733487 -0.20892 -6.97705e-14 3.13352e-14 -5.16308e-14 -69.2953 27.304 -22.3894 15.141 -7.90084 -27.9346 0.22066 -13.3449 1.90987 1.39654e-09 1.39936e-09 -5.58236e-10 2.42084e-09 2.42397e-09 -9.5982e-10 1.39653e-09 1.39935e-09 -5.58228e-10 -7.73091 5.47488 -0.417314 1.39654e-09 1.39935e-09 -5.58243e-10 -2.90554 0.965183 -0.102902 1.39653e-09 1.39935e-09 -5.58239e-10 -10.2786 0.731801 -0.0259123 1.39655e-09 1.39936e-09 -5.5824e-10 -2.22167 -0.733487 0.20892 -2.03217e-16 0.0 -3.88251e-19 -14.7864 -61.5368 -1.36784 -144.195 88.2572 145.256 -6.38602 -26.2258 -11.3889 2.03217e-16 0.0 3.88251e-19 -13.8851 -56.0294 -8.07971 5.98158 81.5275 -6.67843 1.18125 -26.6923 1.86941
